<svg xmlns="http://www.w3.org/2000/svg" width="400" height="400" viewBox="0 0 400 400"><rect width="100%" height="100%" fill="#DDDDDD"/><path fill="#999999" d="M100.88 185.78h4.74v28.92h-2.76q-.64 0-1.07-.21-.43-.21-.83-.71l-15.1-19.28q.12 1.32.12 2.44v17.76h-4.74v-28.92h2.82q.34 0 .59.03.25.03.44.12t.37.26q.18.17.4.45L101.02 206q-.06-.7-.1-1.38-.04-.68-.04-1.26v-17.58Zm19.48 8.08q2.28 0 4.15.74 1.87.74 3.2 2.1t2.05 3.32q.72 1.96.72 4.38 0 2.44-.72 4.4-.72 1.96-2.05 3.34-1.33 1.38-3.2 2.12-1.87.74-4.15.74-2.3 0-4.18-.74t-3.21-2.12q-1.33-1.38-2.06-3.34t-.73-4.4q0-2.42.73-4.38t2.06-3.32q1.33-1.36 3.21-2.1t4.18-.74Zm0 17.34q2.56 0 3.79-1.72t1.23-5.04q0-3.32-1.23-5.06-1.23-1.74-3.79-1.74-2.6 0-3.85 1.75t-1.25 5.05q0 3.3 1.25 5.03 1.25 1.73 3.85 1.73Zm20.74 3.82q-2.68 0-4.11-1.51-1.43-1.51-1.43-4.17v-11.46h-2.1q-.4 0-.68-.26t-.28-.78v-1.96l3.3-.54 1.04-5.6q.1-.4.38-.62.28-.22.72-.22h2.56v6.46h5.48v3.52h-5.48V209q0 .96.47 1.5t1.29.54q.46 0 .77-.11t.54-.23q.23-.12.41-.23.18-.11.36-.11.22 0 .36.11.14.11.3.33l1.48 2.4q-1.08.9-2.48 1.36-1.4.46-2.9.46Zm24.62-11.24h9.2l-3.52-9.62q-.26-.64-.54-1.52t-.56-1.9q-.26 1.02-.54 1.91-.28.89-.54 1.55l-3.5 9.58Zm7.34-18 11.36 28.92h-4.16q-.7 0-1.14-.35-.44-.35-.66-.87l-2.16-5.9h-11.98l-2.16 5.9q-.16.46-.62.84-.46.38-1.14.38h-4.2l11.38-28.92h5.48Zm28.18 8.4h3.9L197 214.7h-4.48l-8.14-20.52h4.08q.56 0 .93.26t.49.66l3.96 10.96q.32.96.56 1.88.24.92.42 1.84.2-.92.44-1.84t.58-1.88l4.04-10.96q.14-.4.5-.66t.86-.26Zm17.36 15.22v-3.46q-2.14.1-3.6.37t-2.34.69q-.88.42-1.26.98t-.38 1.22q0 1.3.77 1.86t2.01.56q1.52 0 2.63-.55 1.11-.55 2.17-1.67Zm-10.44-10.78-.88-1.58q3.54-3.24 8.52-3.24 1.8 0 3.22.59 1.42.59 2.4 1.64.98 1.05 1.49 2.51.51 1.46.51 3.2v12.96h-2.24q-.7 0-1.08-.21-.38-.21-.6-.85l-.44-1.48q-.78.7-1.52 1.23t-1.54.89q-.8.36-1.71.55-.91.19-2.01.19-1.3 0-2.4-.35-1.1-.35-1.9-1.05-.8-.7-1.24-1.74-.44-1.04-.44-2.42 0-.78.26-1.55t.85-1.47q.59-.7 1.53-1.32.94-.62 2.31-1.08 1.37-.46 3.19-.75 1.82-.29 4.16-.35v-1.2q0-2.06-.88-3.05-.88-.99-2.54-.99-1.2 0-1.99.28t-1.39.63q-.6.35-1.09.63-.49.28-1.09.28-.52 0-.88-.27t-.58-.63Zm20.06-4.44h4.96v20.52h-4.96v-20.52Zm5.64-5.98q0 .64-.26 1.2-.26.56-.69.98-.43.42-1.01.67-.58.25-1.24.25-.64 0-1.21-.25t-.99-.67q-.42-.42-.67-.98-.25-.56-.25-1.2 0-.66.25-1.24t.67-1q.42-.42.99-.67.57-.25 1.21-.25.66 0 1.24.25t1.01.67q.43.42.69 1 .26.58.26 1.24Zm4.42-3.22h4.94v29.72h-4.94v-29.72ZM259 209.4v-3.46q-2.14.1-3.6.37t-2.34.69q-.88.42-1.26.98t-.38 1.22q0 1.3.77 1.86t2.01.56q1.52 0 2.63-.55 1.11-.55 2.17-1.67Zm-10.44-10.78-.88-1.58q3.54-3.24 8.52-3.24 1.8 0 3.22.59 1.42.59 2.4 1.64.98 1.05 1.49 2.51.51 1.46.51 3.2v12.96h-2.24q-.7 0-1.08-.21-.38-.21-.6-.85l-.44-1.48q-.78.7-1.52 1.23t-1.54.89q-.8.36-1.71.55-.91.19-2.01.19-1.3 0-2.4-.35-1.1-.35-1.9-1.05-.8-.7-1.24-1.74-.44-1.04-.44-2.42 0-.78.26-1.55t.85-1.47q.59-.7 1.53-1.32.94-.62 2.31-1.08 1.37-.46 3.19-.75 1.82-.29 4.16-.35v-1.2q0-2.06-.88-3.05-.88-.99-2.54-.99-1.2 0-1.99.28t-1.39.63q-.6.35-1.09.63-.49.28-1.09.28-.52 0-.88-.27t-.58-.63Zm24.84 1.56v9.2q.84 1.02 1.83 1.44.99.42 2.09.42 1.14 0 2.05-.41.91-.41 1.55-1.28.64-.87.98-2.22.34-1.35.34-3.23 0-3.38-1.12-4.89-1.12-1.51-3.22-1.51-1.42 0-2.48.65t-2.02 1.83Zm0-15.2v11.72q1.24-1.3 2.75-2.07 1.51-.77 3.45-.77 1.78 0 3.21.7t2.44 2.01q1.01 1.31 1.55 3.17.54 1.86.54 4.18 0 2.5-.62 4.54t-1.77 3.49q-1.15 1.45-2.77 2.25t-3.6.8q-.96 0-1.74-.19t-1.44-.53q-.66-.34-1.21-.83-.55-.49-1.05-1.09l-.22 1.38q-.12.52-.41.74-.29.22-.79.22h-3.26v-29.72h4.94Zm17.82 0h4.94v29.72h-4.94v-29.72Zm13.78 17.1h9.32q0-.96-.27-1.81-.27-.85-.81-1.49t-1.37-1.01q-.83-.37-1.93-.37-2.14 0-3.37 1.22t-1.57 3.46Zm12.6 2.98h-12.7q.12 1.58.56 2.73.44 1.15 1.16 1.9t1.71 1.12q.99.37 2.19.37t2.07-.28q.87-.28 1.52-.62.65-.34 1.14-.62.49-.28.95-.28.62 0 .92.46l1.42 1.8q-.82.96-1.84 1.61-1.02.65-2.13 1.04-1.11.39-2.26.55-1.15.16-2.23.16-2.14 0-3.98-.71-1.84-.71-3.2-2.1-1.36-1.39-2.14-3.44t-.78-4.75q0-2.1.68-3.95t1.95-3.22q1.27-1.37 3.1-2.17 1.83-.8 4.13-.8 1.94 0 3.58.62 1.64.62 2.82 1.81t1.85 2.92q.67 1.73.67 3.95 0 1.12-.24 1.51-.24.39-.92.39Z"/></svg>